<?xml version="1.0" encoding="utf-8"?>
<!-- Generator: Adobe Illustrator 22.1.0, SVG Export Plug-In . SVG Version: 6.00 Build 0)  -->
<svg version="1.1" id="Layer_1" xmlns="http://www.w3.org/2000/svg" xmlns:xlink="http://www.w3.org/1999/xlink" x="0px" y="0px"
	 viewBox="0 0 588.8 116" style="enable-background:new 0 0 588.8 116;" xml:space="preserve">
<style type="text/css">
	.st0{fill:#231F20;}
	.st1{fill:#00AEEF;stroke:#024E81;stroke-width:8;stroke-miterlimit:10;}
	.st2{fill:url(#SVGID_1_);}
	.st3{fill:url(#SVGID_2_);}
	.st4{fill:url(#SVGID_3_);}
	.st5{fill:url(#SVGID_4_);}
</style>
<g>
	<g>
		<g>
			<path class="st0" d="M202.2,91.1h-13.4V60.9c0-4.6-1.2-7.9-3.5-9.9c-2.3-2-5.6-3-10-3h-12.5v43.2h-13.4V24h13.4v17.3h12.5
				c9.1,0,15.9,1.6,20.3,4.9c4.4,3.3,6.6,8.2,6.6,14.7V91.1z"/>
			<path class="st0" d="M250.8,59.5c0-4.6-1.2-8-3.6-10.2c-2.4-2.2-5.5-3.3-9.4-3.3c-2.9,0-5.7,0.4-8.4,1.3c-2.8,0.9-5.2,2-7.4,3.5
				l-3.4-5.8c1.4-1,3-1.8,4.7-2.5c1.7-0.7,3.4-1.3,5.2-1.8c1.8-0.5,3.6-0.8,5.3-1.1c1.8-0.3,3.4-0.4,4.9-0.4c4.1,0,7.7,0.5,10.8,1.4
				c3.1,1,5.8,2.3,8,4.1c2.2,1.8,3.8,3.9,4.9,6.4c1.1,2.5,1.7,5.2,1.7,8.2v31.7h-26.9c-8.7,0-15.1-1.3-19.2-3.9
				c-4.1-2.6-6.2-6.6-6.2-11.9c0-5.3,2.1-9.3,6.2-11.9c4.1-2.6,10.5-3.9,19.2-3.9H250.8z M226.4,75.3c0,6.1,3.7,9.1,11,9.1h13.4
				V66.2h-13.4C230,66.2,226.4,69.2,226.4,75.3z"/>
			<path class="st0" d="M315.3,48h-11.5c-4.4,0-7.7,1.2-10,3.5c-2.3,2.3-3.5,5.8-3.5,10.4v29.3h-13.4V61.9c0-6.5,2.1-11.6,6.2-15.2
				c4.1-3.6,10.1-5.4,17.8-5.4h14.4V48z"/>
			<path class="st0" d="M323.1,91.1V24h13.4v17.3h12c4.4,0,8.4,0.6,12,1.7c3.6,1.2,6.7,2.8,9.3,5c2.6,2.2,4.5,4.8,5.9,7.9
				c1.4,3.1,2.1,6.5,2.1,10.4c0,3.8-0.7,7.3-2.1,10.4c-1.4,3.1-3.3,5.7-5.9,7.9c-2.6,2.2-5.6,3.8-9.3,5c-3.6,1.2-7.6,1.7-12,1.7
				H323.1z M348.5,84.4c2.2,0,4.2-0.3,6-1c1.8-0.7,3.4-1.7,4.7-3.2c1.3-1.5,2.3-3.4,3.1-5.7c0.7-2.3,1.1-5.1,1.1-8.3
				c0-3.3-0.4-6-1.1-8.3c-0.7-2.3-1.8-4.2-3.1-5.7c-1.3-1.5-2.9-2.5-4.7-3.2c-1.8-0.7-3.8-1-6-1h-12v36.5H348.5z"/>
			<path class="st0" d="M415.8,39.3c4.3,0,8.2,0.6,11.9,1.8c3.6,1.2,6.7,2.9,9.3,5.2c2.6,2.3,4.6,5.1,6,8.4
				c1.4,3.4,2.2,7.2,2.2,11.5c0,4.4-0.7,8.2-2.2,11.5c-1.4,3.3-3.4,6.1-6,8.4c-2.6,2.3-5.6,4-9.3,5.2c-3.6,1.2-7.6,1.8-11.9,1.8
				c-4.4,0-8.3-0.6-11.9-1.8c-3.6-1.2-6.7-2.9-9.2-5.2c-2.6-2.3-4.6-5.1-6-8.4c-1.4-3.3-2.2-7.2-2.2-11.5c0-4.3,0.7-8.1,2.2-11.5
				c1.4-3.4,3.4-6.2,6-8.4c2.6-2.3,5.6-4,9.2-5.2C407.5,39.9,411.5,39.3,415.8,39.3z M415.8,86.8c2,0,4-0.4,5.8-1.2
				c1.8-0.8,3.4-2,4.7-3.6c1.3-1.6,2.4-3.8,3.2-6.4c0.8-2.6,1.2-5.8,1.2-9.5c0-3.7-0.4-6.9-1.2-9.5c-0.8-2.6-1.9-4.8-3.2-6.4
				c-1.3-1.6-2.9-2.8-4.7-3.6c-1.8-0.8-3.7-1.2-5.8-1.2c-2,0-4,0.4-5.8,1.2c-1.8,0.8-3.4,2-4.7,3.6c-1.3,1.6-2.4,3.8-3.2,6.4
				c-0.8,2.6-1.2,5.8-1.2,9.5c0,3.7,0.4,6.9,1.2,9.5c0.8,2.6,1.9,4.8,3.2,6.4s2.9,2.8,4.7,3.6C411.9,86.4,413.8,86.8,415.8,86.8z"/>
			<path class="st0" d="M495.2,48h-11.5c-4.4,0-7.7,1.2-10,3.5c-2.3,2.3-3.5,5.8-3.5,10.4v29.3h-13.4V61.9c0-6.5,2.1-11.6,6.2-15.2
				c4.1-3.6,10.1-5.4,17.8-5.4h14.4V48z"/>
		</g>
		<g>
			<path class="st0" d="M501.7,84.9c0,1.9-0.7,3.6-2,5c-1.3,1.4-3.1,2.2-5.2,2.2c-2.2,0-3.9-0.7-5.2-2.2c-1.3-1.4-2-3.1-2-5
				c0-1.9,0.7-3.6,2-5c1.3-1.4,3.1-2.2,5.2-2.2c2.1,0,3.8,0.7,5.2,2.2C501,81.3,501.7,83,501.7,84.9z"/>
			<path class="st0" d="M548.8,59.5c0-4.6-1.2-8-3.6-10.2c-2.4-2.2-5.5-3.3-9.4-3.3c-2.9,0-5.7,0.4-8.4,1.3c-2.8,0.9-5.2,2-7.4,3.5
				l-3.4-5.8c1.4-1,3-1.8,4.7-2.5c1.7-0.7,3.4-1.3,5.2-1.8c1.8-0.5,3.6-0.8,5.3-1.1c1.8-0.3,3.4-0.4,4.9-0.4c4.1,0,7.7,0.5,10.8,1.4
				c3.1,1,5.8,2.3,8,4.1c2.2,1.8,3.8,3.9,4.9,6.4c1.1,2.5,1.7,5.2,1.7,8.2v31.7h-26.9c-8.7,0-15.1-1.3-19.2-3.9
				c-4.1-2.6-6.2-6.6-6.2-11.9c0-5.3,2.1-9.3,6.2-11.9c4.1-2.6,10.5-3.9,19.2-3.9H548.8z M524.4,75.3c0,6.1,3.7,9.1,11,9.1h13.4
				V66.2h-13.4C528,66.2,524.4,69.2,524.4,75.3z"/>
			<path class="st0" d="M588.8,29.3c0,1.9-0.7,3.6-2,5c-1.3,1.4-3.1,2.2-5.2,2.2s-3.9-0.7-5.2-2.2c-1.3-1.4-2-3.1-2-5s0.7-3.6,2-5
				c1.3-1.4,3.1-2.2,5.2-2.2c2.1,0,3.8,0.7,5.2,2.2C588.1,25.7,588.8,27.3,588.8,29.3z M588.3,91.1h-13.4V42.2h13.4V91.1z"/>
		</g>
	</g>
	<g>
		<g>
			<polygon class="st1" points="97.6,4.9 36.3,4.9 5.7,58 36.3,111.1 97.6,111.1 128.3,58 			"/>
		</g>
	</g>
	<linearGradient id="SVGID_1_" gradientUnits="userSpaceOnUse" x1="25.8291" y1="65.2917" x2="44.6812" y2="35.1221">
		<stop  offset="0" style="stop-color:#DBDCDC"/>
		<stop  offset="1" style="stop-color:#FFFFFF"/>
	</linearGradient>
	<path class="st2" d="M26.4,65.6V44.8l27.1-4.1c0,0-10.5,6.6-19.6,12.5C27.1,57.6,26.5,64.9,26.4,65.6z"/>
	<linearGradient id="SVGID_2_" gradientUnits="userSpaceOnUse" x1="39.3917" y1="95.9583" x2="58.2437" y2="65.7888">
		<stop  offset="0" style="stop-color:#DBDCDC"/>
		<stop  offset="1" style="stop-color:#FFFFFF"/>
	</linearGradient>
	<path class="st3" d="M39.9,96.3V75.4l27.1-4.1c0,0-10.5,6.6-19.6,12.5C40.6,88.2,40.1,95.6,39.9,96.3z"/>
	<linearGradient id="SVGID_3_" gradientUnits="userSpaceOnUse" x1="70.225" y1="89.625" x2="89.077" y2="59.4555">
		<stop  offset="0" style="stop-color:#DBDCDC"/>
		<stop  offset="1" style="stop-color:#FFFFFF"/>
	</linearGradient>
	<path class="st4" d="M70.8,90V69.1L97.9,65c0,0-10.5,6.6-19.6,12.5C71.5,81.9,70.9,89.2,70.8,90z"/>
	<linearGradient id="SVGID_4_" gradientUnits="userSpaceOnUse" x1="58.6124" y1="68.0512" x2="86.9663" y2="22.6754">
		<stop  offset="0" style="stop-color:#DBDCDC"/>
		<stop  offset="1" style="stop-color:#FFFFFF"/>
	</linearGradient>
	<path class="st5" d="M59.4,68.6V37.2l40.8-6.2c0,0-15.8,9.9-29.5,18.8C60.5,56.4,59.6,67.5,59.4,68.6z"/>
</g>
</svg>
