<svg enable-background="new 0 0 587.7 114.2" viewBox="0 0 587.7 114.2" xmlns="http://www.w3.org/2000/svg" xmlns:xlink="http://www.w3.org/1999/xlink"><linearGradient id="a"><stop offset="0" stop-color="#dbdcdc"/><stop offset="1" stop-color="#fff"/></linearGradient><linearGradient id="b" gradientUnits="userSpaceOnUse" x1="24.7942" x2="43.6462" xlink:href="#a" y1="64.3954" y2="34.2259"/><linearGradient id="c" gradientUnits="userSpaceOnUse" x1="38.3567" x2="57.2087" xlink:href="#a" y1="95.0621" y2="64.8925"/><linearGradient id="d" gradientUnits="userSpaceOnUse" x1="69.1901" x2="88.0421" xlink:href="#a" y1="88.7287" y2="58.5592"/><linearGradient id="e" gradientUnits="userSpaceOnUse" x1="57.5775" x2="85.9314" xlink:href="#a" y1="67.1549" y2="21.7791"/><g fill="#fff"><path d="m201.2 90.3h-13.4v-30.3c0-4.6-1.2-7.9-3.5-9.9s-5.6-3-10-3h-12.5v43.2h-13.4v-67.2h13.4v17.3h12.5c9.1 0 15.9 1.6 20.3 4.9s6.6 8.2 6.6 14.7z"/><path d="m249.8 58.6c0-4.6-1.2-8-3.6-10.2s-5.5-3.3-9.4-3.3c-2.9 0-5.7.4-8.4 1.3-2.8.9-5.2 2-7.4 3.5l-3.4-5.8c1.4-1 3-1.8 4.7-2.5s3.4-1.3 5.2-1.8 3.6-.8 5.3-1.1c1.8-.3 3.4-.4 4.9-.4 4.1 0 7.7.5 10.8 1.4 3.1 1 5.8 2.3 8 4.1s3.8 3.9 4.9 6.4 1.7 5.2 1.7 8.2v31.7h-26.9c-8.7 0-15.1-1.3-19.2-3.9s-6.2-6.6-6.2-11.9 2.1-9.3 6.2-11.9 10.5-3.9 19.2-3.9h13.6zm-24.5 15.8c0 6.1 3.7 9.1 11 9.1h13.4v-18.2h-13.4c-7.3 0-11 3-11 9.1z"/><path d="m314.2 47.1h-11.5c-4.4 0-7.7 1.2-10 3.5s-3.5 5.8-3.5 10.4v29.3h-13.4v-29.3c0-6.5 2.1-11.6 6.2-15.2s10.1-5.4 17.8-5.4h14.4z"/><path d="m322.1 90.3v-67.2h13.4v17.3h12c4.4 0 8.4.6 12 1.7 3.6 1.2 6.7 2.8 9.3 5s4.5 4.8 5.9 7.9 2.1 6.5 2.1 10.4c0 3.8-.7 7.3-2.1 10.4s-3.3 5.7-5.9 7.9-5.6 3.8-9.3 5c-3.6 1.2-7.6 1.7-12 1.7h-25.4zm25.4-6.8c2.2 0 4.2-.3 6-1s3.4-1.7 4.7-3.2 2.3-3.4 3.1-5.7c.7-2.3 1.1-5.1 1.1-8.3 0-3.3-.4-6-1.1-8.3s-1.8-4.2-3.1-5.7-2.9-2.5-4.7-3.2-3.8-1-6-1h-12v36.5h12z"/><path d="m414.8 38.4c4.3 0 8.2.6 11.9 1.8 3.6 1.2 6.7 2.9 9.3 5.2s4.6 5.1 6 8.4c1.4 3.4 2.2 7.2 2.2 11.5 0 4.4-.7 8.2-2.2 11.5-1.4 3.3-3.4 6.1-6 8.4s-5.6 4-9.3 5.2c-3.6 1.2-7.6 1.8-11.9 1.8-4.4 0-8.3-.6-11.9-1.8s-6.7-2.9-9.2-5.2c-2.6-2.3-4.6-5.1-6-8.4s-2.2-7.2-2.2-11.5.7-8.1 2.2-11.5c1.4-3.4 3.4-6.2 6-8.4 2.6-2.3 5.6-4 9.2-5.2s7.5-1.8 11.9-1.8zm0 47.5c2 0 4-.4 5.8-1.2s3.4-2 4.7-3.6 2.4-3.8 3.2-6.4 1.2-5.8 1.2-9.5-.4-6.9-1.2-9.5-1.9-4.8-3.2-6.4-2.9-2.8-4.7-3.6-3.7-1.2-5.8-1.2c-2 0-4 .4-5.8 1.2s-3.4 2-4.7 3.6-2.4 3.8-3.2 6.4-1.2 5.8-1.2 9.5.4 6.9 1.2 9.5 1.9 4.8 3.2 6.4 2.9 2.8 4.7 3.6c1.8.9 3.7 1.2 5.8 1.2z"/><path d="m494.1 47.1h-11.5c-4.4 0-7.7 1.2-10 3.5s-3.5 5.8-3.5 10.4v29.3h-13.4v-29.3c0-6.5 2.1-11.6 6.2-15.2s10.1-5.4 17.8-5.4h14.4z"/><path d="m500.6 84c0 1.9-.7 3.6-2 5s-3.1 2.2-5.2 2.2c-2.2 0-3.9-.7-5.2-2.2-1.3-1.4-2-3.1-2-5s.7-3.6 2-5 3.1-2.2 5.2-2.2 3.8.7 5.2 2.2c1.4 1.4 2 3.1 2 5z"/><path d="m547.8 58.6c0-4.6-1.2-8-3.6-10.2s-5.5-3.3-9.4-3.3c-2.9 0-5.7.4-8.4 1.3-2.8.9-5.2 2-7.4 3.5l-3.4-5.8c1.4-1 3-1.8 4.7-2.5s3.4-1.3 5.2-1.8 3.6-.8 5.3-1.1c1.8-.3 3.4-.4 4.9-.4 4.1 0 7.7.5 10.8 1.4 3.1 1 5.8 2.3 8 4.1s3.8 3.9 4.9 6.4 1.7 5.2 1.7 8.2v31.7h-26.9c-8.7 0-15.1-1.3-19.2-3.9s-6.2-6.6-6.2-11.9 2.1-9.3 6.2-11.9 10.5-3.9 19.2-3.9h13.6zm-24.5 15.8c0 6.1 3.7 9.1 11 9.1h13.4v-18.2h-13.4c-7.3 0-11 3-11 9.1z"/><path d="m587.7 28.4c0 1.9-.7 3.6-2 5s-3.1 2.2-5.2 2.2-3.9-.7-5.2-2.2c-1.3-1.4-2-3.1-2-5s.7-3.6 2-5 3.1-2.2 5.2-2.2 3.8.7 5.2 2.2c1.3 1.4 2 3 2 5zm-.5 61.9h-13.4v-49h13.4z"/></g><path d="m96.6 4h-61.3l-30.7 53.1 30.7 53.1h61.3l30.6-53.1z" fill="#00aeef" stroke="#024e81" stroke-miterlimit="10" stroke-width="8"/><path d="m25.3 64.7v-20.8l27.1-4.1s-10.5 6.6-19.6 12.5c-6.8 4.4-7.3 11.7-7.5 12.4z" fill="url(#b)"/><path d="m38.9 95.4v-20.9l27.1-4.1s-10.5 6.6-19.6 12.5c-6.8 4.4-7.4 11.8-7.5 12.5z" fill="url(#c)"/><path d="m69.7 89.1v-20.9l27.1-4.1s-10.5 6.6-19.6 12.5c-6.8 4.4-7.3 11.7-7.5 12.5z" fill="url(#d)"/><path d="m58.4 67.7v-31.4l40.8-6.2s-15.8 9.9-29.5 18.8c-10.2 6.6-11.1 17.7-11.3 18.8z" fill="url(#e)"/></svg>